<svg width="31" height="33" viewBox="0 0 31 33" fill="none" xmlns="http://www.w3.org/2000/svg">
<path d="M18.4258 12.7715C19.2706 12.2342 20.3953 12.4835 20.9326 13.3281C21.1927 13.7369 21.2779 14.2233 21.1729 14.6963C21.0677 15.1695 20.784 15.5738 20.375 15.834L14.085 19.8369C13.7933 20.0225 13.4565 20.1211 13.1113 20.1211C12.5424 20.121 11.9993 19.8494 11.6582 19.3945L9.94336 17.1074C9.65257 16.7197 9.53019 16.2415 9.59863 15.7617C9.66716 15.282 9.91793 14.8563 10.3057 14.5654C10.6933 14.2745 11.1723 14.1519 11.6523 14.2207C12.1321 14.2893 12.5569 14.541 12.8477 14.9287L13.5547 15.8711L18.4258 12.7715ZM19.7988 14.0498C19.6593 13.8305 19.3669 13.7649 19.1475 13.9043V13.9053L13.751 17.3389C13.4549 17.5272 13.0632 17.4556 12.8525 17.1748L11.7725 15.7354C11.6967 15.6344 11.5869 15.5686 11.4619 15.5508C11.4394 15.5475 11.4168 15.5459 11.3945 15.5459C11.2934 15.5459 11.195 15.5786 11.1123 15.6406C11.0114 15.7164 10.9466 15.8263 10.9287 15.9512C10.9109 16.0759 10.9421 16.1999 11.0176 16.3008L12.7334 18.5879C12.8235 18.708 12.9606 18.7773 13.1113 18.7773C13.2005 18.7773 13.2882 18.7515 13.3643 18.7031L19.6533 14.7012C19.7598 14.6334 19.834 14.5284 19.8613 14.4053C19.8887 14.2822 19.8664 14.1562 19.7988 14.0498Z" fill="#B87664" stroke="#B87664" stroke-width="0.2"/>
<path d="M15.3992 7.62878C20.1837 7.62888 24.076 11.521 24.076 16.3055C24.0759 21.09 20.1837 24.9822 15.3992 24.9823C10.6147 24.9823 6.72257 21.09 6.72247 16.3055C6.72247 11.521 10.6147 7.62878 15.3992 7.62878ZM15.3992 8.97156C11.3557 8.97156 8.06525 12.262 8.06525 16.3055C8.06534 20.3491 11.3557 23.6385 15.3992 23.6385C19.4427 23.6385 22.7321 20.349 22.7322 16.3055C22.7322 12.2621 19.4427 8.97165 15.3992 8.97156Z" fill="#B87664" stroke="#B87664" stroke-width="0.2"/>
<path d="M15.3976 4.53992C18.6315 4.53992 21.6724 5.79914 23.9591 8.08582C24.2214 8.34821 24.2214 8.77367 23.9591 9.03601C23.8281 9.16698 23.6561 9.23219 23.4845 9.2323C23.3127 9.2323 23.1401 9.16719 23.0089 9.03601C20.9757 7.00276 18.273 5.88269 15.3976 5.88269C12.5222 5.88271 9.81944 7.00277 7.78625 9.03601C7.52387 9.29822 7.09839 9.29826 6.83606 9.03601C6.57376 8.77364 6.57377 8.34816 6.83606 8.08582C9.12278 5.79915 12.1637 4.53994 15.3976 4.53992Z" fill="#B87664" stroke="#B87664" stroke-width="0.2"/>
<path d="M15.3984 1.60352C19.3252 1.60352 23.0174 3.13253 25.7939 5.90918C28.5706 8.68583 30.0996 12.378 30.0996 16.3047C30.0996 20.2314 28.5705 23.9236 25.7939 26.7002C23.0174 29.4768 19.3252 31.0059 15.3984 31.0059C11.4717 31.0059 7.77964 29.4768 5.00293 26.7002C2.22633 23.9236 0.697266 20.2314 0.697266 16.3047C0.697266 12.378 2.2263 8.68589 5.00293 5.90918C7.77958 3.13259 11.4717 1.60352 15.3984 1.60352ZM15.3984 2.94629C8.03292 2.94629 2.04004 8.93917 2.04004 16.3047C2.04004 23.6702 8.03292 29.6631 15.3984 29.6631C22.764 29.6631 28.7568 23.6702 28.7568 16.3047C28.7568 8.93917 22.764 2.94629 15.3984 2.94629Z" fill="#B87664" stroke="#B87664" stroke-width="0.2"/>
<path d="M5.39355 10.2012C5.57032 10.2013 5.74319 10.2725 5.86816 10.3975C5.99325 10.5225 6.06445 10.6961 6.06445 10.873C6.06433 11.0498 5.99314 11.2227 5.86816 11.3477C5.74319 11.4726 5.57033 11.5438 5.39355 11.5439C5.21661 11.5439 5.04305 11.4727 4.91797 11.3477C4.79301 11.2227 4.72181 11.0498 4.72168 10.873C4.72168 10.6961 4.79289 10.5225 4.91797 10.3975C5.04305 10.2724 5.21661 10.2012 5.39355 10.2012ZM24.834 10.2012C25.0109 10.2012 25.1845 10.2724 25.3096 10.3975C25.4346 10.5225 25.5059 10.6962 25.5059 10.873C25.5057 11.0498 25.4344 11.2227 25.3096 11.3477C25.1845 11.4728 25.0109 11.5439 24.834 11.5439C24.6572 11.5439 24.4844 11.4726 24.3594 11.3477C24.2343 11.2227 24.1622 11.0498 24.1621 10.873C24.1621 10.6961 24.2343 10.5225 24.3594 10.3975C24.4844 10.2725 24.6572 10.2012 24.834 10.2012Z" fill="#B87664" stroke="#B87664" stroke-width="0.2"/>
</svg>
