<svg width="34" height="35" viewBox="0 0 34 35" fill="none" xmlns="http://www.w3.org/2000/svg">
<path d="M16.2971 29.7791C17.1513 29.7791 17.8425 29.0879 17.8425 28.2337C17.8425 27.3795 17.1513 26.6882 16.2971 26.6882C10.3326 26.6882 5.47891 21.8345 5.47891 15.8701C5.47891 9.90555 10.3326 5.05187 16.2971 5.05187C19.3685 5.05187 22.2587 6.38414 24.2865 8.60856L21.519 9.10717C20.6799 9.2596 20.1215 10.0625 20.2724 10.9032C20.4082 11.6502 21.0587 12.1739 21.7922 12.1739C21.8828 12.1739 21.9748 12.1664 22.0684 12.1498L28.5219 10.9862C28.9248 10.9137 29.2825 10.6828 29.5165 10.3463C29.7504 10.0097 29.8409 9.59467 29.7685 9.1902L28.6049 2.73823C28.4525 1.8991 27.6586 1.33766 26.8089 1.49161C25.9698 1.64403 25.4113 2.44694 25.5623 3.28759L26.0446 5.95809C23.475 3.43888 19.9813 1.96096 16.2971 1.96096C8.62717 1.96096 2.388 8.20013 2.388 15.8701C2.388 23.54 8.62717 29.7791 16.2971 29.7791Z" fill="#B87664"/>
<path d="M25.244 18.9609H30.066C30.9202 18.9609 31.6115 18.2697 31.6115 17.4155C31.6115 16.5613 30.9202 15.87 30.066 15.87H28.5054C28.5054 15.0158 27.8142 14.3246 26.96 14.3246C26.1058 14.3246 25.4145 15.0158 25.4145 15.87H25.244C22.79 15.87 20.7933 17.9452 20.7933 20.5441C20.7933 23.0932 22.79 25.1669 25.244 25.1669H27.1607C27.9108 25.1669 28.5205 25.8551 28.5205 26.7003C28.5205 27.5455 27.9108 28.2337 27.1607 28.2337H26.9902H26.9751H22.3387C21.4845 28.2337 20.7933 28.9249 20.7933 29.7791C20.7933 30.6333 21.4845 31.3246 22.3387 31.3246H25.4175C25.4185 32.1714 26.0961 32.8611 26.9449 32.87C26.9494 32.87 26.9555 32.87 26.96 32.87C27.8067 32.87 28.4964 32.1879 28.5055 31.3397L28.5079 31.0845C30.301 30.4871 31.6115 28.7585 31.6115 26.7003C31.6115 24.1497 29.6147 22.076 27.1607 22.076H25.244C24.4939 22.076 23.8842 21.3893 23.8842 20.4943C23.8842 19.6492 24.4939 18.9609 25.244 18.9609Z" fill="#B87664"/>
</svg>
