<svg width="34" height="35" viewBox="0 0 34 35" fill="none" xmlns="http://www.w3.org/2000/svg">
<g clip-path="url(#clip0_1_128)">
<g clip-path="url(#clip1_1_128)">
<path fill-rule="evenodd" clip-rule="evenodd" d="M22.4501 18.2375C21.9956 19.0964 21.2175 19.6493 20.3745 19.8359C20.2472 19.8359 20.0521 19.8967 19.8569 19.8967C18.4322 19.8967 17.5898 18.8524 17.5898 17.3178C17.5898 15.3508 18.8207 14.431 20.3745 13.9993C21.2175 13.8156 22.1914 13.7536 23.1628 13.7536V14.4913C23.1628 15.9037 23.227 17.0083 22.4501 18.2375ZM23.1628 10.9306C22.3204 10.9914 21.3465 11.0523 20.3745 11.1728C18.8849 11.3595 17.3953 11.6052 16.1657 12.1581C13.7677 13.0795 12.1465 15.0442 12.1465 17.9298C12.1465 21.556 14.6082 23.3966 17.7214 23.3966C18.757 23.3966 19.5994 23.2726 20.3745 23.0906C21.609 22.7209 22.6434 22.0451 23.8743 20.8159C24.5876 21.7374 24.7839 22.1691 26.0135 23.1515C26.3377 23.2726 26.662 23.2726 26.9195 23.0906C27.6983 22.4751 29.0606 21.3694 29.7721 20.7551C30.0963 20.5099 30.0327 20.1407 29.8357 19.8359C29.1242 18.9753 28.4097 18.2375 28.4097 16.5794V11.0517C28.4097 8.71847 28.6067 6.56836 26.7917 4.97287C25.3021 3.68512 22.9683 3.1925 21.1532 3.1925H20.3745C17.0723 3.3739 13.5744 4.72598 12.7938 8.59561C12.6641 9.08822 13.0544 9.27136 13.3138 9.33163L16.9426 9.76223C17.3311 9.70022 17.5262 9.39248 17.5898 9.08822C17.9128 7.73672 19.08 7.06097 20.3745 6.93637H20.6357C21.4138 6.93637 22.2568 7.24411 22.7089 7.85958C23.227 8.59561 23.1628 9.5791 23.1628 10.4397V10.9306Z" fill="#343B45"/>
<path fill-rule="evenodd" clip-rule="evenodd" d="M36.2692 24.0234V24.0223C36.2558 23.7325 36.1915 23.5117 36.0643 23.328L36.0502 23.3106L36.0349 23.292C35.9052 23.1582 35.7811 23.1072 35.6465 23.0515C35.2439 22.9043 34.6585 22.8255 33.9544 22.8243C33.4485 22.8243 32.8906 22.8701 32.3296 22.9866L32.3278 22.9501L31.7631 23.1286L31.7527 23.1332L31.4334 23.2318V23.2445C31.0683 23.388 30.7225 23.5721 30.4032 23.7928C30.2062 23.9319 30.0441 24.1173 30.035 24.4001C30.0349 24.483 30.0541 24.5649 30.0911 24.64C30.1281 24.7151 30.182 24.7816 30.2491 24.8348C30.3224 24.8902 30.4071 24.9307 30.4977 24.9539C30.5883 24.977 30.6829 24.9822 30.7758 24.9692L30.8033 24.9681L30.8241 24.9646C31.1006 24.909 31.5031 24.8713 31.9742 24.8093C32.3779 24.7664 32.8062 24.7357 33.1775 24.7357C33.4399 24.7339 33.6761 24.7519 33.8382 24.7844C33.9079 24.7964 33.9755 24.8179 34.0388 24.8481C34.0515 24.8986 34.0567 24.9505 34.0541 25.0023C34.0578 25.2967 33.9269 25.8432 33.7452 26.377C33.569 26.9101 33.3549 27.4451 33.2136 27.8003C33.1765 27.8861 33.1572 27.9777 33.1567 28.0704C33.153 28.213 33.2154 28.3862 33.3463 28.501C33.4748 28.6152 33.64 28.6609 33.7782 28.6609H33.7849C33.9923 28.6592 34.1685 28.581 34.3202 28.468C35.7535 27.2474 36.2521 25.2967 36.2729 24.1984L36.2692 24.0234ZM32.0207 25.7157C31.8696 25.7151 31.7203 25.7468 31.5839 25.8084C31.4267 25.8675 31.2658 25.9365 31.1141 25.9974L30.8914 26.0854L30.6014 26.1956V26.1985C27.451 27.4097 24.1414 28.1196 21.0784 28.1817C20.9659 28.1851 20.8521 28.1851 20.7432 28.1851C15.9263 28.188 11.9971 26.071 8.03303 23.9846C7.90436 23.918 7.76057 23.882 7.61399 23.8797C7.43597 23.8797 7.25306 23.9434 7.1197 24.0611C7.05301 24.1212 6.99996 24.1936 6.96378 24.2738C6.9276 24.354 6.90905 24.4404 6.90926 24.5276C6.90742 24.7548 7.03711 24.9646 7.21819 25.1002C10.9388 28.162 15.0167 31.0058 20.5022 31.0093C20.6092 31.0093 20.7181 31.0058 20.8264 31.0046C24.3158 30.9304 28.2609 29.8131 31.3239 27.9904L31.3423 27.9788C31.7531 27.7465 32.1472 27.4884 32.5217 27.2063C32.7566 27.0411 32.9193 26.7826 32.9193 26.5143C32.9089 26.0379 32.4813 25.7157 32.0207 25.7157Z" fill="#FF9A00"/>
</g>
</g>
<defs>
<clipPath id="clip0_1_128">
<rect width="34" height="34" fill="white" transform="translate(0 0.101562)"/>
</clipPath>
<clipPath id="clip1_1_128">
<rect width="29.3636" height="27.8182" fill="white" transform="translate(6.90924 3.1925)"/>
</clipPath>
</defs>
</svg>
