<svg width="26" height="23" viewBox="0 0 26 23" fill="none" xmlns="http://www.w3.org/2000/svg">
<g clip-path="url(#clip0_1_155)">
<path d="M18.3182 18.6028H9.15588C8.90148 18.6028 8.6575 18.5018 8.47761 18.3219C8.29773 18.142 8.19667 17.898 8.19667 17.6436C8.19667 17.3892 8.29773 17.1452 8.47761 16.9654C8.6575 16.7855 8.90148 16.6844 9.15588 16.6844H18.3182C18.5726 16.6844 18.8166 16.7855 18.9965 16.9654C19.1764 17.1452 19.2775 17.3892 19.2775 17.6436C19.2775 17.898 19.1764 18.142 18.9965 18.3219C18.8166 18.5018 18.5726 18.6028 18.3182 18.6028ZM23.5977 18.6028H23.3675C23.1131 18.6028 22.8692 18.5018 22.6893 18.3219C22.5094 18.142 22.4083 17.898 22.4083 17.6436C22.4083 17.3892 22.5094 17.1452 22.6893 16.9654C22.8692 16.7855 23.1131 16.6844 23.3675 16.6844H23.5977C23.6609 16.6854 23.7236 16.6739 23.7822 16.6504C23.8408 16.627 23.8941 16.5921 23.9391 16.5478C23.9841 16.5035 24.0199 16.4507 24.0442 16.3925C24.0686 16.3343 24.0812 16.2718 24.0812 16.2086V12.9166C24.0809 12.8087 24.0444 12.704 23.9777 12.6191C23.9109 12.5343 23.8177 12.4742 23.7128 12.4485H18.0573C17.4217 12.4485 16.8119 12.1965 16.3617 11.7478C15.9115 11.299 15.6575 10.69 15.6555 10.0544V4.91299C15.6565 4.85022 15.6449 4.78789 15.6214 4.7297C15.5978 4.67151 15.5628 4.61864 15.5184 4.57426C15.4741 4.52987 15.4212 4.49486 15.363 4.47132C15.3048 4.44778 15.2425 4.43618 15.1797 4.43722H3.87639C3.62199 4.43722 3.37801 4.33616 3.19812 4.15627C3.01823 3.97639 2.91718 3.73241 2.91718 3.47801C2.91718 3.22361 3.01823 2.97963 3.19812 2.79974C3.37801 2.61986 3.62199 2.5188 3.87639 2.5188H15.1797C15.4941 2.5188 15.8055 2.58073 16.0959 2.70105C16.3864 2.82136 16.6503 2.99772 16.8727 3.22004C17.095 3.44236 17.2713 3.70629 17.3917 3.99677C17.512 4.28725 17.5739 4.59858 17.5739 4.91299V10.039C17.5739 10.1021 17.5864 10.1646 17.6108 10.2229C17.6352 10.2811 17.671 10.3339 17.716 10.3782C17.7609 10.4224 17.8143 10.4573 17.8729 10.4808C17.9315 10.5042 17.9942 10.5158 18.0573 10.5148H23.5977C23.7729 10.517 23.9476 10.535 24.1195 10.5685L24.2884 10.6222C24.7852 10.7675 25.2212 11.0709 25.53 11.4863C25.8388 11.9018 26.0037 12.4066 25.9996 12.9243V16.2163C25.9955 16.8507 25.7407 17.4577 25.2907 17.9048C24.8407 18.3519 24.2321 18.6028 23.5977 18.6028Z" fill="#B87664"/>
<path d="M23.9246 12.4769C23.7274 12.4768 23.5351 12.4155 23.3742 12.3014C23.2134 12.1873 23.092 12.0261 23.0268 11.84L21.492 7.5734C21.4507 7.51582 21.3967 7.46856 21.3341 7.43529C21.2716 7.40201 21.2022 7.38362 21.1314 7.38155H16.5962C16.3418 7.38155 16.0978 7.2805 15.9179 7.10061C15.7381 6.92072 15.637 6.67674 15.637 6.42234C15.637 6.16795 15.7381 5.92397 15.9179 5.74408C16.0978 5.56419 16.3418 5.46313 16.5962 5.46313H21.1314C21.5566 5.46479 21.9735 5.58114 22.3382 5.79993C22.7028 6.01872 23.0017 6.33184 23.2033 6.70627C23.2269 6.75084 23.2474 6.79699 23.2646 6.8444L24.7994 11.1954C24.8833 11.4356 24.8691 11.6992 24.7599 11.929C24.6508 12.1589 24.4554 12.3364 24.2162 12.4232C24.1216 12.4532 24.0236 12.4713 23.9246 12.4769ZM20.8398 22.6982C20.1492 22.6982 19.4741 22.4934 18.9 22.1098C18.3258 21.7261 17.8783 21.1808 17.614 20.5428C17.3497 19.9048 17.2806 19.2028 17.4153 18.5255C17.55 17.8482 17.8826 17.2261 18.3709 16.7378C18.8592 16.2495 19.4813 15.917 20.1586 15.7823C20.8359 15.6475 21.5379 15.7167 22.1759 15.9809C22.8139 16.2452 23.3592 16.6927 23.7429 17.2669C24.1265 17.8411 24.3313 18.5161 24.3313 19.2067C24.3313 20.1327 23.9634 21.0208 23.3086 21.6756C22.6538 22.3304 21.7658 22.6982 20.8398 22.6982ZM20.8398 17.6336C20.5271 17.626 20.2193 17.7117 19.9556 17.8799C19.6919 18.048 19.4843 18.2909 19.3593 18.5776C19.2344 18.8643 19.1977 19.1818 19.254 19.4894C19.3103 19.797 19.457 20.0809 19.6754 20.3048C19.8938 20.5286 20.174 20.6823 20.4801 20.7462C20.7863 20.81 21.1045 20.7812 21.3942 20.6634C21.6839 20.5455 21.9319 20.344 22.1065 20.0845C22.2811 19.8251 22.3744 19.5194 22.3745 19.2067C22.3746 18.796 22.2142 18.4016 21.9274 18.1077C21.6406 17.8138 21.2503 17.6436 20.8398 17.6336ZM6.62043 22.6982C5.92987 22.6982 5.25482 22.4934 4.68064 22.1098C4.10647 21.7261 3.65895 21.1808 3.39468 20.5428C3.13042 19.9048 3.06128 19.2028 3.196 18.5255C3.33072 17.8482 3.66325 17.2261 4.15155 16.7378C4.63985 16.2495 5.26198 15.917 5.93927 15.7823C6.61656 15.6475 7.31859 15.7167 7.95658 15.9809C8.59457 16.2452 9.13987 16.6927 9.52353 17.2669C9.90718 17.8411 10.112 18.5161 10.112 19.2067C10.112 20.1327 9.7441 21.0208 9.08931 21.6756C8.43452 22.3304 7.54644 22.6982 6.62043 22.6982ZM6.62043 17.6336C6.3093 17.6336 6.00516 17.7258 5.74646 17.8987C5.48777 18.0716 5.28614 18.3172 5.16707 18.6047C5.04801 18.8921 5.01686 19.2084 5.07755 19.5136C5.13825 19.8187 5.28808 20.099 5.50808 20.319C5.72808 20.539 6.00838 20.6889 6.31353 20.7496C6.61869 20.8103 6.93499 20.7791 7.22243 20.6601C7.50988 20.541 7.75556 20.3394 7.92842 20.0807C8.10127 19.822 8.19354 19.5178 8.19354 19.2067C8.19354 18.7895 8.0278 18.3894 7.73278 18.0943C7.43777 17.7993 7.03764 17.6336 6.62043 17.6336Z" fill="#B87664"/>
<path d="M16.5983 18.5988C16.4721 18.5998 16.3469 18.5757 16.2301 18.5278C16.1132 18.48 16.0071 18.4094 15.9178 18.3201C15.8285 18.2308 15.7579 18.1247 15.7101 18.0078C15.6622 17.891 15.6381 17.7658 15.6391 17.6396V9.25223C15.6391 8.99783 15.7402 8.75385 15.9201 8.57396C16.1 8.39408 16.344 8.29302 16.5983 8.29302C16.8527 8.29302 17.0967 8.39408 17.2766 8.57396C17.4565 8.75385 17.5576 8.99783 17.5576 9.25223V17.6396C17.5586 17.7658 17.5345 17.891 17.4866 18.0078C17.4388 18.1247 17.3682 18.2308 17.2789 18.3201C17.1896 18.4094 17.0835 18.48 16.9666 18.5278C16.8498 18.5757 16.7246 18.5998 16.5983 18.5988ZM6.76837 9.28292H0.483624C0.229226 9.28292 -0.0147532 9.18186 -0.19464 9.00198C-0.374527 8.82209 -0.475586 8.57811 -0.475586 8.32371C-0.475586 8.06931 -0.374527 7.82533 -0.19464 7.64545C-0.0147532 7.46556 0.229226 7.3645 0.483624 7.3645H6.76837C7.02276 7.3645 7.26674 7.46556 7.44663 7.64545C7.62652 7.82533 7.72758 8.06931 7.72758 8.32371C7.72758 8.57811 7.62652 8.82209 7.44663 9.00198C7.26674 9.18186 7.02276 9.28292 6.76837 9.28292ZM7.95011 13.5648H4.66578C4.41138 13.5648 4.1674 13.4638 3.98751 13.2839C3.80763 13.104 3.70657 12.86 3.70657 12.6056C3.70657 12.3512 3.80763 12.1072 3.98751 11.9274C4.1674 11.7475 4.41138 11.6464 4.66578 11.6464H7.95011C8.20451 11.6464 8.44849 11.7475 8.62838 11.9274C8.80826 12.1072 8.90932 12.3512 8.90932 12.6056C8.90932 12.86 8.80826 13.104 8.62838 13.2839C8.44849 13.4638 8.20451 13.5648 7.95011 13.5648Z" fill="#B87664"/>
</g>
<defs>
<clipPath id="clip0_1_155">
<rect width="26" height="22" fill="white" transform="translate(0 0.698486)"/>
</clipPath>
</defs>
</svg>
