<svg width="27" height="28" viewBox="0 0 27 28" fill="none" xmlns="http://www.w3.org/2000/svg">
<path d="M13.5 1.44067C9.82797 1.44067 6.84025 4.42839 6.84025 8.10039V11.8855C6.26409 11.9979 5.74484 12.3068 5.37119 12.7596C4.99754 13.2123 4.79269 13.7807 4.79163 14.3678V24.2219C4.79163 25.6175 5.92647 26.7532 7.32288 26.7532H19.6762C21.0726 26.7532 22.2075 25.6175 22.2075 24.2219V14.3678C22.2064 13.7807 22.0016 13.2123 21.6279 12.7596C21.2543 12.3068 20.735 11.9979 20.1588 11.8855V8.10039C20.1597 4.42839 17.172 1.44067 13.5 1.44067ZM8.52775 8.10039C8.52775 5.3582 10.7578 3.12817 13.5 3.12817C16.2422 3.12817 18.4722 5.35905 18.4722 8.10039V11.8365H8.52775V8.10039ZM20.5208 14.3678V24.2219C20.5208 24.6868 20.1428 25.0657 19.6771 25.0657H7.32372C6.85797 25.0657 6.47997 24.6868 6.47997 24.2219V14.3678C6.47997 13.9029 6.85797 13.524 7.32372 13.524H19.6762C20.142 13.524 20.5208 13.9029 20.5208 14.3678Z" fill="#B87664"/>
<path d="M13.5 15.592C12.6969 15.5929 11.927 15.9124 11.3591 16.4802C10.7913 17.0481 10.4718 17.818 10.4709 18.6211C10.4709 19.9964 11.3991 21.1464 12.6563 21.5152V22.1539C12.6563 22.3777 12.7452 22.5923 12.9034 22.7505C13.0616 22.9087 13.2762 22.9976 13.5 22.9976C13.7238 22.9976 13.9384 22.9087 14.0966 22.7505C14.2549 22.5923 14.3438 22.3777 14.3438 22.1539V21.5143C15.6009 21.1464 16.5291 19.9956 16.5291 18.6203C16.5291 16.9513 15.1698 15.592 13.5 15.592ZM13.5 19.9618C13.1442 19.9618 12.803 19.8205 12.5514 19.5689C12.2998 19.3173 12.1584 18.9761 12.1584 18.6203C12.1584 17.8811 12.7609 17.2795 13.5 17.2795C14.2391 17.2795 14.8416 17.8811 14.8416 18.6211C14.8411 18.9766 14.6996 19.3174 14.448 19.5686C14.1965 19.8199 13.8555 19.9618 13.5 19.9618Z" fill="#B87664"/>
</svg>
